<?xml version="1.0" encoding="utf-8"?>
<!-- Generator: Adobe Illustrator 24.0.0, SVG Export Plug-In . SVG Version: 6.00 Build 0)  -->
<svg version="1.1" id="Capa_1" xmlns="http://www.w3.org/2000/svg" xmlns:xlink="http://www.w3.org/1999/xlink" x="0px" y="0px"
	 viewBox="0 0 512 300" style="enable-background:new 0 0 512 300;" xml:space="preserve">
<style type="text/css">
	.st0{fill:#803FD3;}
	.st1{fill:#EF7633;}
</style>
<g>
	<defs>
		<rect id="SVGID_1_" x="111.4" y="330.1" width="300.1" height="210.4"/>
	</defs>
	<clipPath id="SVGID_2_">
		<use xlink:href="#SVGID_1_"  style="overflow:visible;"/>
	</clipPath>
	<g style="clip-path:url(#SVGID_2_);">
		
			<image style="overflow:visible;" width="1920" height="1080" xlink:href="27AF8023.jpg"  transform="matrix(0.8336 0 0 0.8336 -546.8219 36.2575)">
		</image>
	</g>
</g>
<g>
	<path class="st0" d="M205,527.5h0.1c0.2,0,0.7,0.3,1.7,1c0.7,0.3,2.1,0.7,4.2,1.1c0.8,0.3,1.4,0.9,1.9,1.7c0.3,0.6,0.5,1.2,0.5,1.9
		v0.2c0,1-0.5,1.8-1.5,2.1c-0.4,0.1-0.8,0.2-1.2,0.2h-0.1c-0.6,0-1.1-0.4-1.3-1.2c0-0.1,0-0.1,0-0.2c0.1-0.5,0.1-0.8,0.1-1
		c0-0.3,0-0.7-0.1-1.2c0-0.2,0.1-0.3,0.3-0.3c0.2,0,0.5,0.4,1,1.1c0.3,0.3,0.5,0.4,0.8,0.4c0.3,0,0.4-0.3,0.4-0.8v0
		c0-0.9-0.3-1.5-1-2.1c-0.3-0.2-0.6-0.3-0.8-0.3h-0.2c-0.5,0-0.9,0.5-1,1.6c-0.2,1.4-0.3,3.1-0.3,5.2c0,3.5,0.1,7.2,0.3,11.3
		c0.1,0.2,0.2,0.3,0.4,0.3h0c0.2,0,0.5-0.5,0.9-1.4c0.3-0.6,0.5-0.8,0.8-0.8c0.2,0,0.3,0.1,0.4,0.2v0.1c-0.2,0.5-0.2,0.8-0.2,1v0.1
		c0,0.3,0.2,0.8,0.5,1.4v0.2c0,0.7-0.8,1.2-2.5,1.4c-0.9,0.3-1.6,0.5-1.9,0.9c-0.2,0.3-0.4,0.7-0.5,1.3c-0.1,0.2-0.2,0.3-0.4,0.3
		c-1.1-0.3-1.6-1.1-1.6-2.3v-0.2c0-0.8,0.2-1.6,0.7-2.5c0.4-0.5,0.6-2.2,0.5-4.9c0-1.3-0.1-2-0.3-2.3c-0.4-0.4-1-0.8-2-1.1
		c-0.5-0.1-1-0.2-1.3-0.2h-0.3c-0.6,0-1,0.2-1.4,0.6c-0.1,1.4-0.2,3-0.2,4.8c0,2.9,0.1,4.6,0.4,5c0,0.1,0.4,0.7,1.3,1.7
		c0.2,0.3,0.3,0.5,0.3,0.6v0.1c0,0.3-0.2,0.6-0.5,0.7c-0.1,0.1-0.3,0.1-0.4,0.1h-0.3c-0.3,0-1-0.3-2.2-0.8c-0.3-0.1-0.6-0.2-1-0.2
		l-1.2,0.1c-0.4-0.1-0.6-0.2-0.6-0.5v-0.1c0-0.2,0.3-0.6,0.8-1c0.5-0.6,0.8-1,0.8-1.4c0.2-1,0.3-2.2,0.3-3.5
		c-0.1-2.7-0.1-4.1-0.3-4.5c-0.5,0.2-1,0.8-1.6,1.9c-0.3,0.6-0.4,1-0.5,1h-0.1c-0.2,0-0.4-0.2-0.6-0.5c-0.2-0.4-0.2-0.8-0.2-1.2
		c0-1.2,0.7-2.5,2-3.7c0.5-0.4,0.9-0.7,1.2-0.8c0.1-0.8,0.1-1.6,0.1-2.3v-0.6c0-3-0.1-4.6-0.3-4.8c-0.1-0.2-0.4-0.4-0.8-0.9
		c-0.1-0.2-0.1-0.3-0.1-0.3c0-0.2,0.7-0.4,2-0.5c0.8-0.2,1.6-0.6,2.3-1.2c0,0,0,0,0.1-0.1c0.2,0,0.3,0.2,0.3,0.5l0,0.1v0.1
		c0,0.5-0.2,1.2-0.5,2.1c-0.4,0.5-0.6,2.4-0.6,5.6c0,0.8,0,1.4,0.1,1.7c0.2,0,0.5-0.1,0.9-0.1c1.5,0,2.9,0.6,4.2,1.8h0
		c0.1,0,0.1-0.2,0.1-0.5c0-0.6,0-2.2,0.1-4.8v-0.2c0-1.2-0.5-3-1.4-5.2c-0.1-0.2-0.1-0.4-0.1-0.6C204.6,527.7,204.7,527.5,205,527.5
		z"/>
	<path class="st0" d="M219.9,528.1h0.1c0.5,0,1,0.3,1.7,0.9c0.4,0.4,1.1,0.7,2.1,0.8c0.3,0,0.6,0.1,1,0.4c0,0.1,0.1,0.2,0.1,0.3
		c0,0.2-0.3,0.5-0.8,0.7c-0.3,0.5-0.5,1-0.5,1.7c0,1.4,0.6,4,1.8,7.8c1.2,3.9,2.2,6.5,3.1,7.7c0.9,0.7,1.4,1.2,1.4,1.5v0.1
		c0,0.3-0.3,0.4-1,0.5c-0.7,0-1.5,0.3-2.3,1c-0.7,0.6-1.3,0.9-1.7,0.9h0c-0.2,0-0.4-0.1-0.4-0.4V552c0-0.4,0.2-1.2,0.7-2.2
		c0.1-0.2,0.1-0.4,0.1-0.6v-0.4c0-0.5-0.2-1.1-0.5-1.9c-1.6-1.7-2.8-2.8-3.6-3.4c-0.9-0.7-1.5-1.2-2-1.5h0c-1.7,4.5-2.5,7.2-2.5,7.9
		v0.1c0,0,0.2,0.5,0.5,1.3c0.1,0.2,0.1,0.4,0.1,0.6c-0.1,0.2-0.3,0.3-0.5,0.3c-0.1,0-0.6-0.2-1.5-0.5l-1.3-0.1
		c-0.9,0-1.7,0.2-2.5,0.6l-0.2,0c-0.2-0.1-0.3-0.2-0.3-0.3v-0.1c0-0.6,0.6-1.4,1.7-2.4c0.5-0.7,0.9-1.3,1.2-1.9
		c0.9-1.6,1.8-3.9,2.9-6.8h0c-1-0.5-1.9-0.7-2.6-0.7h-0.1c0,0,0,0,0,0l-0.1,0h-0.3c-0.2,0-0.4,0.1-0.6,0.3c-0.1,0.1-0.1,0.2-0.1,0.3
		c0,0.5,0.4,1.1,1.3,1.7c0.1,0.1,0.2,0.1,0.3,0.1c0.3,0,0.4,0,0.5,0c0.1,0,0.2,0.2,0.2,0.4c0,0.5-0.4,1.1-1.2,1.7
		c-0.2,0.1-0.4,0.1-0.5,0.1h-0.3c-0.9,0-1.5-0.5-2-1.5c-0.1-0.4-0.2-0.7-0.2-1v-0.2c0-0.8,0.3-1.6,1-2.4c0.7-0.6,1.6-0.9,2.7-0.9
		c0.7,0,1.6,0.1,2.7,0.4c1.5-4.3,2.3-6.8,2.3-7.4v-0.2c0-0.3-0.2-0.9-0.6-1.8c-0.1-0.3-0.2-0.5-0.2-0.7
		C219.2,528.5,219.4,528.3,219.9,528.1z M221.3,536.3l-1.4,3.7h0c0.7,0.4,1.8,1.3,3.5,2.7v0C223.3,542.1,222.5,539.9,221.3,536.3
		L221.3,536.3z"/>
	<path class="st0" d="M235.1,526.7h0.1c0,0,0,0,0.1,0.1v0.1c0,0-0.4,0.8-1.1,2.3c-0.5,0.9-0.7,3.6-0.7,7.9c0,7,0.1,10.5,0.2,10.5
		c0.1,0.9,0.4,1.6,0.7,2.1c0.8,1.1,2.1,1.6,4,1.6c2,0,4.1-0.7,6.2-2c0.1-0.1,0.2-0.1,0.2-0.1h0c0.1,0.1,0.2,0.2,0.2,0.3v0.2
		c0,0.7-0.6,1.6-1.7,2.7c-1.3,1.1-2.7,1.6-4.2,1.6c-1.5,0-3.1-0.6-4.8-1.8c-0.7-0.4-1.7-0.7-2.8-1c-0.6-0.2-1.4-0.3-2.3-0.3
		c-1,0-1.6,0.2-2,0.5c-0.1-0.2-0.1-0.3-0.1-0.5c0-0.2,0.2-0.3,0.5-0.5c0.4-0.4,0.5-0.8,0.5-1.2c0-0.4-0.2-0.8-0.6-1.2
		c0-0.1,0.1-0.1,0.3-0.1h0.2c0.3,0,0.6,0.3,0.9,0.9c0.4,0.7,0.6,1.1,0.7,1.2l0.1,0h0c0.3,0,0.4-0.2,0.5-0.6c0.4-1.9,0.6-4.9,0.6-9.1
		c0-3.4-0.1-6.2-0.4-8.5v-0.3c0-0.6,0.3-1,0.8-1.1c0.1,0,0.3-0.1,0.4-0.3C233.3,527.8,234.6,526.7,235.1,526.7z"/>
	<path class="st0" d="M245.3,526.7h0.1c0,0,0,0,0.1,0.1v0.1c0,0-0.4,0.8-1.1,2.3c-0.5,0.9-0.7,3.6-0.7,7.9c0,7,0.1,10.5,0.2,10.5
		c0.1,0.9,0.4,1.6,0.7,2.1c0.8,1.1,2.1,1.6,4,1.6c2,0,4.1-0.7,6.2-2c0.1-0.1,0.2-0.1,0.2-0.1h0c0.1,0.1,0.2,0.2,0.2,0.3v0.2
		c0,0.7-0.6,1.6-1.7,2.7c-1.3,1.1-2.7,1.6-4.2,1.6c-1.5,0-3.1-0.6-4.8-1.8c-0.7-0.4-1.7-0.7-2.8-1c-0.6-0.2-1.4-0.3-2.3-0.3
		c-1,0-1.6,0.2-2,0.5c-0.1-0.2-0.1-0.3-0.1-0.5c0-0.2,0.2-0.3,0.5-0.5c0.4-0.4,0.5-0.8,0.5-1.2c0-0.4-0.2-0.8-0.6-1.2
		c0-0.1,0.1-0.1,0.3-0.1h0.2c0.3,0,0.6,0.3,0.9,0.9c0.4,0.7,0.6,1.1,0.7,1.2l0.1,0h0c0.3,0,0.4-0.2,0.5-0.6c0.4-1.9,0.6-4.9,0.6-9.1
		c0-3.4-0.1-6.2-0.4-8.5v-0.3c0-0.6,0.3-1,0.8-1.1c0.1,0,0.3-0.1,0.4-0.3C243.5,527.8,244.8,526.7,245.3,526.7z"/>
	<path class="st0" d="M255.6,528.8c1.3,0,2.6,0.8,3.9,2.5c1.6,2.2,2.4,5.2,2.4,9v0.1c0,4.3-1.1,7.6-3.3,9.9c-1.1,1-2.3,1.5-3.6,1.5
		c-1.6,0-3.2-0.8-4.6-2.4c-0.7-1-1.3-2.2-1.5-3.7c-0.2-1.5-0.4-3.2-0.4-5.1c0-4.4,1.4-7.9,4.2-10.6
		C253.7,529.2,254.7,528.8,255.6,528.8z M251.1,540.4c0.9-0.7,1.8-1.1,2.8-1.1c1,0.1,1.5,0.4,1.5,0.8v0c0,0.1-0.3,0.3-0.7,0.7
		c-1.4,1.6-2.2,2.7-2.3,3.2c-0.2,0.4-0.2,0.9-0.2,1.5c0,1.4,0.4,2.6,1.3,3.5c0.4,0.3,0.7,0.4,1,0.4c1.1,0,2.1-0.8,3-2.4
		c1-2.1,1.5-4.2,1.5-6.5v-0.1c0,0,0-0.1,0-0.1c0,0,0-0.1,0-0.1v-0.1c0-1.8-0.4-4-1.3-6.5c-0.7-1.7-1.5-2.6-2.4-2.6
		c-1.1,0-2.1,1.5-3.2,4.4c-0.6,1.7-0.8,2.9-0.8,3.5C251.3,538.9,251.2,539.4,251.1,540.4z"/>
	<path class="st0" d="M279.6,526.4L279.6,526.4c0.3,0,1.2,0.5,2.7,1.5c0.6,0.3,1.1,0.5,1.6,0.5c0.3,0,0.6,0,1.1-0.1
		c0.3,0,0.5,0.1,0.5,0.3v0.1c0,0-0.2,0.2-0.7,0.6c-0.4,0.3-1.1,2-2.3,5c-2.8,7.4-4.2,12.4-4.2,14.9v0.1l0,0.2c0,0.6,0.1,1.1,0.4,1.5
		v0.1c0,0.1-0.1,0.1-0.4,0.2c-0.2,0-0.8-0.1-1.6-0.3c-0.1,0-0.2,0-0.3,0h-0.1c-0.2,0-0.5,0.1-1,0.3c0,0-0.1,0-0.2,0
		c-0.1,0-0.1-0.1-0.1-0.2l0.2-0.7V550c0-1.2-0.8-3.7-2.3-7.7h0c-0.7,2-1.4,3.7-1.9,5.3c-0.2,1-0.4,1.7-0.4,2v0.2c0,0,0,0.1,0,0.1
		c0,0.3,0.1,0.5,0.2,0.7c0,0.1,0,0.2,0,0.2c0,0.2-0.1,0.2-0.2,0.2c-0.6-0.2-1-0.3-1-0.3h-0.3c-0.1,0-0.5,0.1-1.4,0.3
		c-0.2,0-0.3,0.1-0.5,0.1c-0.2,0-0.2-0.1-0.2-0.2c0.1-0.4,0.2-0.8,0.2-1.2c0-1.3-0.6-4.1-1.8-8.4c-0.9-3.9-1.7-6.6-2.3-8.3
		c-0.3-0.4-0.6-0.6-0.8-0.6c-0.3,0-0.6,0.5-0.7,1.5c-0.1,0.8-0.4,1.2-0.9,1.2h0c-0.2,0-0.3-0.1-0.3-0.2c0-0.1,0-0.3,0.1-0.6
		c0-0.5-0.3-1.1-1-1.7l0-0.3v-0.1c0-0.5,0.8-1.1,2.4-1.7c0.6-0.3,1-0.6,1.4-0.9c0.3-0.3,0.5-0.8,0.5-1.5c0-0.4,0.1-0.7,0.4-0.7h0.2
		c0.3,0,0.6,0.1,1,0.3c0.8,0.6,1.2,1.5,1.2,2.8c0,0.3-0.1,0.8-0.2,1.4v0.1c0,1.5,0.8,5.5,2.5,12.1l0.4,1.1h0
		c0.6-1.5,1.3-3.6,2.1-6.2c-0.2-0.7-0.6-1.4-1.2-1.9c-0.8-0.7-1.3-1.1-1.6-1.2c-0.2-0.2-0.3-0.3-0.3-0.4c0-0.3,0.2-0.6,0.4-0.7h0.1
		c1.1,0.1,1.8,0.2,1.9,0.2c0.6,0,1.5-0.5,2.9-1.4c0.7-0.4,1.1-0.7,1.3-0.7c0.2,0,0.2,0.1,0.2,0.3c-0.9,2.1-1.3,3.4-1.3,4.1v0.1
		c0,1,0.6,3.2,1.9,6.7c0,0,0.2,0.4,0.5,1h0.1c0.2-0.8,1-3.1,2.2-6.9c1-3.1,1.4-5.7,1.4-7.7v-0.2c0-1.4-0.3-2.6-0.8-3.8
		C279.4,526.5,279.5,526.4,279.6,526.4z"/>
	<path class="st0" d="M297.5,528.7c0.1,0,0.1,0.1,0.1,0.2c-0.2,0.7-0.3,1.1-0.3,1.3v0.1c0,0.3,0.2,1.1,0.6,2.3c0,0.1,0,0.2,0,0.3
		c0,0.1-0.1,0.2-0.2,0.2h-0.1c-1.2-0.9-3.3-1.3-6.2-1.3v0.3c0,1,0,3.3-0.1,7.1c0.7,0,1.5-0.2,2.4-0.5c0.2-0.1,0.5-0.3,0.8-0.5h0.1
		c0,0,0.1,0,0.1,0.1v0.1c0,0.1-0.1,0.4-0.3,1.1c0,0.2,0,0.3,0,0.4c0.1,0.4,0.3,1.2,0.7,2.2c0,0.1,0,0.2,0.1,0.3
		c0,0.2-0.1,0.2-0.2,0.2c-1.1-0.7-2.2-1-3.3-1.2l-0.2,0v0c0,3.5,0.1,5.5,0.4,5.9c0.5,0.9,1.3,1.3,2.3,1.3h0.3c1,0,1.9-0.3,2.6-0.9
		c0.4-0.6,0.7-0.9,1-1.2h0c0.2,0,0.3,0.5,0.3,1.4v0.7c0,0.8,0.2,1.4,0.5,1.9c0.1,0.2,0.1,0.4,0.1,0.4v0.2c-0.1,0.2-0.3,0.3-0.8,0.3
		c-0.6,0-2-0.2-4.1-0.6c-1-0.1-1.9-0.2-2.7-0.2c-1.5,0-3.4,0.3-5.8,0.9h-0.2c-0.5,0-0.8-0.3-0.8-1c0-0.4,0.1-0.6,0.2-0.8
		c0.3-0.5,0.4-0.9,0.4-1.2c0-0.2-0.1-0.5-0.2-0.9v0c0.1-0.2,0.2-0.2,0.5-0.2c0.3,0,0.7,0.6,1.1,1.7c0.1,0.2,0.2,0.3,0.3,0.3h0.1
		c0.3-0.2,0.6-0.8,0.8-1.8c0.1-0.2,0.2-1.2,0.4-2.8c0.1-2,0.2-4,0.2-6c0-3.2-0.2-5.5-0.5-6.8c-0.2-0.4-0.5-0.6-1-0.6
		c-1.1,0-1.8,0.4-2.1,1.2c0,0.2-0.1,0.3-0.1,0.4c0,0.4,0.1,0.6,0.3,0.7h0.2c0.4,0,0.8-0.4,1.3-1.2c0.2-0.2,0.4-0.3,0.5-0.3
		c0.1,0,0.2,0.1,0.2,0.3c0,0.1,0,0.4-0.1,1.1c0,0.3,0.1,0.6,0.1,1c0,0.5-0.3,0.9-1,1.3c-0.2,0.1-0.4,0.1-0.7,0.1
		c-1.2,0-2-0.4-2.4-1.2c-0.1-0.3-0.1-0.6-0.1-0.8v-0.3c0-0.9,0.4-1.8,1.1-2.7c0.9-0.9,2.3-1.3,4.1-1.3l5.1,0.2
		c1.8,0,3.1-0.3,3.7-0.9H297.5z"/>
	<path class="st0" d="M311.7,528.7c0.1,0,0.1,0.1,0.1,0.2c-0.2,0.7-0.3,1.1-0.3,1.3v0.1c0,0.3,0.2,1.1,0.6,2.3c0,0.1,0,0.2,0,0.3
		c0,0.1-0.1,0.2-0.2,0.2h-0.1c-1.2-0.9-3.3-1.3-6.2-1.3v0.3c0,1,0,3.3-0.1,7.1c0.7,0,1.5-0.2,2.4-0.5c0.2-0.1,0.5-0.3,0.8-0.5h0.1
		c0,0,0.1,0,0.1,0.1v0.1c0,0.1-0.1,0.4-0.3,1.1c0,0.2,0,0.3,0,0.4c0.1,0.4,0.3,1.2,0.7,2.2c0,0.1,0,0.2,0.1,0.3
		c0,0.2-0.1,0.2-0.2,0.2c-1.1-0.7-2.2-1-3.3-1.2l-0.2,0v0c0,3.5,0.1,5.5,0.4,5.9c0.5,0.9,1.3,1.3,2.3,1.3h0.3c1,0,1.9-0.3,2.6-0.9
		c0.4-0.6,0.7-0.9,1-1.2h0c0.2,0,0.3,0.5,0.3,1.4v0.7c0,0.8,0.2,1.4,0.5,1.9c0.1,0.2,0.1,0.4,0.1,0.4v0.2c-0.1,0.2-0.3,0.3-0.8,0.3
		c-0.6,0-2-0.2-4.1-0.6c-1-0.1-1.9-0.2-2.7-0.2c-1.5,0-3.4,0.3-5.8,0.9h-0.2c-0.5,0-0.8-0.3-0.8-1c0-0.4,0.1-0.6,0.2-0.8
		c0.3-0.5,0.4-0.9,0.4-1.2c0-0.2-0.1-0.5-0.2-0.9v0c0.1-0.2,0.2-0.2,0.5-0.2c0.3,0,0.7,0.6,1.1,1.7c0.1,0.2,0.2,0.3,0.3,0.3h0.1
		c0.3-0.2,0.6-0.8,0.8-1.8c0.1-0.2,0.2-1.2,0.4-2.8c0.1-2,0.2-4,0.2-6c0-3.2-0.2-5.5-0.5-6.8c-0.2-0.4-0.5-0.6-1-0.6
		c-1.1,0-1.8,0.4-2.1,1.2c0,0.2-0.1,0.3-0.1,0.4c0,0.4,0.1,0.6,0.3,0.7h0.2c0.4,0,0.8-0.4,1.3-1.2c0.2-0.2,0.4-0.3,0.5-0.3
		c0.1,0,0.2,0.1,0.2,0.3c0,0.1,0,0.4-0.1,1.1c0,0.3,0.1,0.6,0.1,1c0,0.5-0.3,0.9-1,1.3c-0.2,0.1-0.4,0.1-0.7,0.1
		c-1.2,0-2-0.4-2.4-1.2c-0.1-0.3-0.1-0.6-0.1-0.8v-0.3c0-0.9,0.4-1.8,1.1-2.7c0.9-0.9,2.3-1.3,4.1-1.3l5.1,0.2
		c1.8,0,3.1-0.3,3.7-0.9H311.7z"/>
	<path class="st0" d="M318.1,528.6c0.3,0,0.5,0.2,0.5,0.4v0.2c0,0.6-0.3,1.2-1,1.9c-0.1,0.1-0.1,0.1-0.1,0.1
		c0.7,1.9,1.9,4.6,3.6,8.1l3.1,6.1h0v-0.1c0-1.4,0.1-2.5,0.1-3.3v-0.5c0-3.4-0.3-6.7-0.8-10c-0.5-0.9-0.8-1.7-0.8-2.5v-0.2
		c0-0.1,0.1-0.2,0.2-0.3h0.1c0.1,0,0.3,0.1,0.7,0.3c0.9,0.5,2.1,0.8,3.8,0.8c0.6,0.1,0.9,0.2,0.9,0.4c0,0.1-0.3,0.4-0.9,1
		c-0.4,0.7-0.6,3.1-0.6,7.2c0,0.8,0.1,4.7,0.2,11.6c0.8,0.8,1.2,1.3,1.2,1.6c0,0.1-0.1,0.1-0.2,0.1c-0.1,0-0.3-0.1-0.9-0.3
		c-0.3-0.1-0.6-0.1-1.1-0.1h-0.2c-0.5,0-1.2,0.1-2,0.2c0,0-0.1,0-0.3,0c-0.2,0-0.3-0.1-0.3-0.3c0-0.2,0.2-0.5,0.4-1V550
		c-0.8-2-2-4.9-3.7-8.6l-2.4-5.1h0v0c0.2,6.1,0.4,10,0.6,11.7c0.1,0.9,0.2,1.4,0.4,1.6c0.3,0.6,0.5,1.2,0.5,1.9v0.3
		c0,1.2-0.5,1.9-1.6,2.3h-0.2c-0.3-0.2-0.4-0.4-0.4-0.8c-0.1-0.4-0.3-0.7-0.7-1c-0.3-0.2-0.8-0.5-1.5-0.6c-1.6-0.3-2.5-0.6-2.8-0.9
		c-0.2-0.2-0.3-0.5-0.3-0.7v-0.2c0.4-0.6,0.5-1.1,0.5-1.4v-0.1c0-0.1-0.1-0.5-0.2-1c0-0.2,0.2-0.3,0.5-0.3c0.3,0,0.6,0.6,1.1,1.7
		c0.2,0.3,0.4,0.5,0.5,0.6c0.5,0,0.8-1.2,0.9-3.5c0.1-1.1,0.1-2.2,0.1-3.3c0-4.2-0.2-7.8-0.7-10.8c-0.1-0.5-0.3-0.7-0.4-0.7
		c0,0-0.1-0.1-0.4-0.1c-1,0-1.7,0.6-2,1.8c0,0.2-0.1,0.3-0.1,0.5v0.1c0,0,0,0,0,0l0,0.1v0.1c0,0.4,0.1,0.6,0.4,0.7h0.1
		c0.4,0,0.8-0.4,1.2-1.1c0.2-0.2,0.4-0.4,0.5-0.4c0.2,0,0.2,0.1,0.3,0.3c0,0.7-0.1,1-0.1,1.1c0,0.1,0,0.5,0.1,1.1
		c0,0.5-0.3,0.9-1,1.2c-0.2,0.1-0.4,0.1-0.5,0.1c-1.3,0-2.2-0.5-2.6-1.5c-0.1-0.3-0.1-0.6-0.1-0.8v-0.3c0-1.1,0.6-2.1,1.7-3
		c0.4-0.2,1-0.5,1.7-0.6c1.7-0.3,2.9-0.7,3.7-1C317.3,528.9,317.8,528.6,318.1,528.6z"/>
</g>
<g>
	<path class="st1" d="M219.6,114.4c5,0,8.4,2.1,10.2,6.2c0.4,1.3,0.6,2.4,0.6,3.4v1.1c-0.3,3.4-0.5,5.4-0.5,5.9
		c0,2.7,0.8,6.6,2.4,11.7c0.2,0.7,0.3,1.4,0.4,2.1c-0.1,0.6-0.4,0.9-0.8,0.9c-1,0-3-1.4-6.1-4.2c-4.2-0.7-6.4-1.2-6.4-1.5
		c-0.5-0.3-0.7-0.8-0.7-1.3v-0.2c0-0.6,0.9-2.3,2.8-5.3c1.1-2.4,1.6-4.5,1.6-6.2c0-1.9-0.7-3.2-2.1-3.9c-0.7-0.3-1.3-0.4-1.8-0.4
		c-3.1,0-6.8,2.1-11,6.4c-4.4,5.4-7.2,11.8-8.5,19.3c-0.5,3.2-0.7,6.1-0.7,8.6v1.8c0,7.3,1.7,13.8,5,19.4c2.7,4.4,6.7,6.5,12,6.5
		h0.2c4.2,0,7.7-2.3,10.6-6.9c0.5,0,1.1-3.3,1.9-9.8c0.6-2.6,1.5-3.8,2.5-3.8h0.1c1,0,2.1,2.9,3.4,8.6c0.8,2.7,1.7,4.4,2.7,5.1
		c2.2,1,3.4,2.2,3.4,3.4v0.1c0,1.1-0.7,1.7-2.2,1.8H238c-0.9,0-1.4-0.1-1.4-0.2l-1,0.1h-1.9c-1.7,0-4.4,1.5-8.1,4.4
		c-4.6,3.3-8.9,4.9-13,4.9h-1.2c-8.2,0-14.5-4.3-18.9-12.8c-2.8-5.8-4.2-12.4-4.2-20.1c0-11.3,2.7-21.3,8.1-30.2
		c4.2-6.7,10-11.4,17.3-14C216.1,114.7,218.1,114.4,219.6,114.4z"/>
	<path class="st1" d="M358.1,111.4c4.7,0,9.2,2.9,13.8,8.8c5.7,7.7,8.5,18.3,8.5,31.6v0.4c0,15-3.8,26.6-11.5,34.8
		c-3.7,3.6-8,5.4-12.8,5.4c-5.7,0-11.1-2.8-16-8.5c-2.6-3.5-4.4-7.9-5.4-13.1c-0.9-5.2-1.3-11.1-1.3-17.9c0-15.3,4.9-27.8,14.8-37.3
		C351.6,112.8,354.9,111.4,358.1,111.4z M342.5,152.2c3.2-2.5,6.4-3.7,9.7-3.7c3.4,0.4,5.1,1.4,5.1,2.9v0.1c-0.1,0.2-0.9,1-2.5,2.3
		c-5,5.7-7.7,9.5-7.9,11.4c-0.6,1.6-0.8,3.3-0.8,5.2c0,5,1.6,9.1,4.7,12.4c1.3,1,2.5,1.5,3.6,1.5c4,0,7.5-2.8,10.6-8.4
		c3.4-7.3,5.1-14.9,5.1-22.7v-0.5c0-0.2,0-0.3,0.1-0.4c-0.1-0.1-0.1-0.3-0.1-0.4v-0.3c0-6.3-1.5-13.9-4.5-22.7
		c-2.4-6-5.2-9.1-8.4-9.1c-3.8,0-7.5,5.1-11.3,15.3c-1.9,6.1-2.9,10.2-2.9,12.2C343,147.1,342.8,148.8,342.5,152.2z"/>
	<path class="st1" d="M258.8,111.9c4.8,0,9.5,3,14.1,9.1c5.8,7.9,8.7,18.8,8.7,32.5v0.4c0,15.4-3.9,27.3-11.8,35.7
		c-3.8,3.7-8.2,5.5-13.1,5.5c-5.9,0-11.4-2.9-16.4-8.7c-2.7-3.6-4.5-8.1-5.6-13.4c-0.9-5.3-1.3-11.4-1.3-18.3
		c0-15.7,5.1-28.5,15.2-38.3C252.1,113.4,255.5,111.9,258.8,111.9z M242.8,153.8c3.2-2.5,6.5-3.8,9.9-3.8c3.5,0.5,5.3,1.4,5.3,2.9
		v0.1c-0.1,0.2-1,1-2.6,2.4c-5.2,5.9-7.9,9.8-8.1,11.7c-0.6,1.6-0.9,3.4-0.9,5.3c0,5.1,1.6,9.3,4.8,12.7c1.3,1,2.5,1.5,3.7,1.5
		c4.1,0,7.7-2.9,10.9-8.6c3.5-7.5,5.3-15.3,5.3-23.3v-0.5c0-0.2,0-0.3,0.1-0.4c-0.1-0.1-0.1-0.3-0.1-0.4v-0.3
		c0-6.5-1.5-14.2-4.6-23.3c-2.4-6.2-5.3-9.3-8.6-9.3c-3.9,0-7.7,5.2-11.6,15.7c-2,6.3-3,10.4-3,12.5
		C243.3,148.6,243.1,150.3,242.8,153.8z"/>
	<path class="st1" d="M413.2,109.8h0.4c2.1,0.8,4.3,2.7,6.5,5.6c1,1.8,1.5,3.6,1.5,5.4c-0.1,3.2-0.4,6.8-0.8,10.9
		c0,2,0.5,4.1,1.5,6.3c0.1,0.3,0.2,0.5,0.2,0.7l-0.3,0.2h-0.8c-4.4,0-7.3-3.6-8.6-10.9c-0.9-5.6-1.8-9.1-2.6-10.6
		c-0.9-1.4-2.3-2.1-4-2.1c-2.7,0-4.9,1.2-6.6,3.7c-0.2,0.5-0.4,1.2-0.6,2.3l0.1,0.2v0.4c0,3.5,2.7,8.1,8.1,13.9
		c4.4,3.5,8.6,7.2,12.6,11.2c4.4,5.1,6.9,9,7.6,11.7c0.9,2.8,1.4,6,1.4,9.7c0,5.1-1.3,9.8-3.9,14c-5.5,7.2-12,10.7-19.3,10.7
		c-10.1,0-17.9-4.9-23.5-14.7c-1.8-3.8-2.7-7.7-2.7-11.7v-1.7c0-6.6,2-11.8,5.9-15.7c2.4-2,5-3,7.7-3c2.8,0,5.8,1.5,9,4.6
		c2.8,3,4.9,6.4,6.4,10.2c0.9,2.6,1.3,4.7,1.3,6.5v0.1c0,1.8-0.8,3.1-2.3,4c-0.1,0.1-0.2,0.1-0.4,0.1c-0.5,0-1.1-0.8-2-2.2
		c-1-1-2.3-1.6-3.9-1.6h-0.6c-0.6,0-2.8,0.2-6.6,0.6c-1.8,0-3-0.7-3.4-2.2c0.1-0.5,0.2-1.4,0.4-2.6c0-1.3-0.6-2.6-1.8-4v-0.5
		c0-0.2,0.4-0.4,1.1-0.7c0.7,0,2.2,1.2,4.4,3.6c0.4,0.3,0.8,0.5,1.2,0.7c0.8,0,1.3-1,1.6-3.1c0-2.6-1.7-5.2-5-7.6
		c-1.3-0.6-2.2-0.9-2.9-0.9c-2.3,0-3.5,2-3.5,5.9c0,5.4,1.5,11.5,4.4,18.4c1,1.9,2.2,3.5,3.6,4.9c3.8,4,8.3,6,13.4,6
		c4.8,0,9.2-2.6,13.1-7.9c1.1-2.1,1.7-4.1,1.7-6v-0.1c0-4.2-2.1-8.4-6.3-12.8c-2.5-2.6-6.2-5.9-11.1-9.9c-8.9-8-13.3-15.7-13.3-22.9
		v-0.8c0-5.7,2.6-9.9,7.8-12.7c2.4-0.8,4.6-1.3,6.5-1.3c2.1,0.1,4,0.3,5.6,0.7c0.7,0,1.2-0.8,1.3-2.3
		C412.8,110.2,412.9,110,413.2,109.8z"/>
	<path class="st1" d="M137.3,113.2h0.2c0.7,0,1.1,2,1.2,5.9c0.8,4.7,2.1,7.9,3.7,9.8c0.2,0.3,0.3,0.5,0.3,0.8v0.1
		c0,0.7-0.8,1.1-2.3,1.1c-2.5,0-5.3-0.6-8.4-1.9c0-0.6-3.6-0.9-10.9-0.9h-0.3c-1.2,0-2.9,0-5.2,0.1c-0.1,4.2-0.2,7.7-0.2,10.6v4.6
		c0,10.1,0.3,20.9,1,32.3c0.5,3.1,1,5.2,1.5,6.2c1.2,2.3,1.8,4.6,1.8,7c0,4-1.5,6.7-4.7,7.9c-0.1,0-0.4,0.1-0.7,0.2
		c-1,0-1.7-1.1-2-3.3c-0.5-1.2-1.4-2.2-2.9-3.1c-2-1-5.4-1.9-10.1-2.9c-3.2-0.8-4.8-2.3-4.8-4.3v-0.1c1.2-1.9,1.8-3.5,1.8-4.6V178
		c0-0.4-0.2-1.4-0.7-2.9c0-0.4,0.4-0.7,1.3-0.9c1.2,0,2.5,1.8,3.8,5.4c0.7,1.4,1.3,2.1,1.9,2.1c0.9,0,1.6-1.1,1.9-3.2
		c1.3-9.8,2-23.5,2-41c-0.1-4.7-0.2-8-0.3-10H106c-3.8,0-7.9,0.7-12.2,2.1c-1.9,0.8-5,2.9-9.4,6.5h-0.6c-0.3-0.2-0.5-0.5-0.5-0.9
		c0-0.8,0.9-3.9,2.7-9.5c0.2-0.9,0.4-1.8,0.4-2.5v-0.3c0-1.1-0.5-2.9-1.4-5.5v-0.4c0-0.6,0.2-0.9,0.7-0.9c0.1,0,1.1,0.6,3,1.7
		c1,0.6,5.4,1.2,13.4,1.7c0.9,0,2.2,0,3.7,0.1c0-0.3-0.3-1-0.9-2.4v-0.1c0.2-0.6,0.8-0.9,1.6-0.9h0.2l4.6,0.5c1.9-0.3,3-0.5,3.2-0.5
		h0.7c0.7,0,1,0.5,1,1.4c0,0.3-0.1,0.7-0.3,1v0.1h0.1c8-0.4,13.4-1.1,16.1-1.9c1.1-0.2,2-0.7,2.5-1.4
		C136,114,136.8,113.2,137.3,113.2z"/>
	<path class="st1" d="M189.5,112.1c0.2,0.1,0.4,0.3,0.4,0.6c-0.8,2.3-1.2,3.8-1.2,4.4v0.3c0,1,0.7,3.7,2.1,7.8
		c0.1,0.5,0.1,0.8,0.1,1.1c-0.1,0.4-0.4,0.6-0.7,0.6h-0.2c-4.2-3-11.4-4.6-21.4-4.6v1c0,3.3-0.1,11.4-0.4,24.4
		c2.4,0,5.1-0.5,8.2-1.6c0.7-0.4,1.6-1,2.8-1.8h0.3c0.1,0,0.2,0.1,0.4,0.4v0.2c0,0.2-0.3,1.5-1,3.8c0,0.7,0,1.2-0.1,1.4
		c0.3,1.4,1.1,4,2.3,7.7c0.1,0.5,0.1,0.8,0.2,0.9c-0.1,0.6-0.4,0.8-0.8,0.8c-3.7-2.2-7.5-3.6-11.4-4l-0.8-0.1v0.1
		c0,12,0.5,18.8,1.4,20.3c1.7,3,4.4,4.5,8,4.5h1.1c3.6,0,6.6-1,9.1-3c1.3-1.9,2.5-3.2,3.3-4h0.1c0.8,0,1.2,1.6,1.2,4.8v2.4
		c0,2.6,0.6,4.9,1.8,6.7c0.3,0.8,0.5,1.3,0.5,1.4v0.6c-0.3,0.6-1.2,0.9-2.7,0.9c-2.1,0-6.8-0.6-14-1.9c-3.6-0.4-6.6-0.6-9.2-0.6
		c-5.2,0-11.8,1-20,3h-0.6c-1.8,0-2.7-1.2-2.7-3.6c0-1.3,0.2-2.2,0.7-2.7c1-1.6,1.5-3,1.5-4.3c-0.1-0.8-0.4-1.8-0.8-3.1v-0.1
		c0.2-0.5,0.8-0.8,1.7-0.8c1,0,2.4,1.9,4,5.8c0.3,0.6,0.7,1,1,1.2h0.3c1-0.6,2-2.7,2.9-6.3c0.4-0.8,0.8-4,1.3-9.7
		c0.5-6.9,0.7-13.8,0.7-20.7c0-11.1-0.5-19-1.6-23.5c-0.6-1.4-1.8-2.1-3.5-2.1c-3.7,0-6.1,1.4-7.2,4.3c-0.1,0.5-0.2,0.9-0.2,1.2
		c0,1.3,0.4,2.1,1.2,2.3h0.6c1.3,0,2.8-1.3,4.4-4c0.8-0.7,1.4-1.1,1.8-1.1c0.5,0.1,0.7,0.5,0.7,1.1c0,0.3-0.1,1.5-0.3,3.7
		c0.1,1.1,0.2,2.2,0.4,3.4c0,1.6-1.2,3.2-3.5,4.6c-0.7,0.2-1.5,0.3-2.3,0.4c-4.3,0-7-1.4-8.2-4.2c-0.3-1-0.5-1.9-0.5-2.7v-0.9
		c0-3.1,1.3-6.2,3.9-9.2c3.2-3.1,7.9-4.6,14.1-4.6l17.7,0.6c6.3,0,10.5-1.1,12.8-3.2H189.5z"/>
	<path class="st1" d="M300.7,110.5h14.8c6.1,0,10.2,1,12.5,2.9c5.2,4,7.9,9.6,7.9,16.6v0.8c0,6.5-2.3,12.6-6.9,18.4
		c-4.7,5.1-10.1,7.7-16.4,7.7c-1.5,0-3.9-0.3-7.4-0.9c0.7,15.6,1.8,24.3,3.2,26c1.1,2.4,1.6,4.8,1.6,7.3c0,4.6-1.9,7.4-5.7,8.6H304
		c-1,0-1.7-1.2-2.1-3.6c-0.5-1.3-1.5-2.5-3.1-3.4c-1.8-1-5.6-2-11.2-3.3c-3.1-1-4.7-2.4-4.7-4.3v-0.6c1.3-2.1,2-3.8,2-5.2v-0.1
		c0-0.6-0.3-1.7-0.9-3.4v-0.2c0-0.4,0.5-0.7,1.4-0.9c1.3,0,2.7,2.1,4.4,6.3c0.6,1.1,1.2,1.7,1.8,1.8c1.2,0,2-1.5,2.5-4.4
		c0.8-4.9,1.2-12.4,1.2-22.6v-4.5c0-18.9-0.4-29.2-1.3-30.8c-0.8-1.7-1.9-2.6-3.3-2.6c-3.2,0-5.5,1.7-6.8,5
		c-0.3,0.6-0.5,1.8-0.7,3.4c0,1.9,0.6,2.8,1.8,2.8h0.1c1.4,0,2.9-1.3,4.4-3.9c0.8-0.8,1.3-1.1,1.7-1.1h0.1c0.5,0,0.8,0.4,0.9,1.1
		c-0.1,1.7-0.2,3.2-0.2,4.3c0,0.4,0.1,1.6,0.4,3.6c0,1.3-0.9,2.6-2.6,4c-0.9,0.5-1.7,0.7-2.6,0.7c-4.7,0-7.7-1.7-9.1-5.2
		c-0.3-0.4-0.4-1.6-0.6-3.4c0-4.6,2.2-8.8,6.5-12.5C288.2,112,293.7,110.5,300.7,110.5z M304.7,132.9l0.3,19.4c0,0,0.4,0,1.2,0.1
		c6.3,0,11.5-4.2,15.4-12.6c1.2-3.3,1.8-6.4,1.8-9.2v-0.5c0-6.3-2.8-11-8.4-14c-2.5-0.9-5.1-1.4-7.7-1.4c-1.4,0-2.1,0.7-2.1,2.1
		C305.1,116.9,304.9,122.2,304.7,132.9z"/>
</g>
</svg>
